<?xml version="1.0" encoding="UTF-8" standalone="no"?>
<!-- Generator: Adobe Illustrator 15.0.0, SVG Export Plug-In . SVG Version: 6.00 Build 0)  -->

<svg
   xmlns:dc="http://purl.org/dc/elements/1.1/"
   xmlns:cc="http://creativecommons.org/ns#"
   xmlns:rdf="http://www.w3.org/1999/02/22-rdf-syntax-ns#"
   xmlns:svg="http://www.w3.org/2000/svg"
   xmlns="http://www.w3.org/2000/svg"
   xmlns:sodipodi="http://sodipodi.sourceforge.net/DTD/sodipodi-0.dtd"
   xmlns:inkscape="http://www.inkscape.org/namespaces/inkscape"
   version="1.1"
   id="Layer_1"
   x="0px"
   y="0px"
   width="64"
   height="64"
   viewBox="0 0 64 64"
   enable-background="new 0 0 26 26"
   xml:space="preserve"
   inkscape:version="0.48.4 r9939"
   sodipodi:docname="icon.svg"><metadata
     id="metadata15"><rdf:RDF><cc:Work
         rdf:about=""><dc:format>image/svg+xml</dc:format><dc:type
           rdf:resource="http://purl.org/dc/dcmitype/StillImage" /></cc:Work></rdf:RDF></metadata><defs
     id="defs13" /><sodipodi:namedview
     pagecolor="#ffffff"
     bordercolor="#666666"
     borderopacity="1"
     objecttolerance="10"
     gridtolerance="10"
     guidetolerance="10"
     inkscape:pageopacity="0"
     inkscape:pageshadow="2"
     inkscape:window-width="1855"
     inkscape:window-height="1056"
     id="namedview11"
     showgrid="false"
     inkscape:zoom="9.0769231"
     inkscape:cx="-8.3728814"
     inkscape:cy="13"
     inkscape:window-x="1985"
     inkscape:window-y="24"
     inkscape:window-maximized="1"
     inkscape:current-layer="Layer_1" /><g
     id="g3"
     transform="matrix(2.1538462,0,0,2.1538462,4,4)"
     style="fill:#333333;fill-opacity:1"><path
       d="M 22.934,11.223 V 8.738 L 19.979,8.256 C 19.803,7.557 19.529,6.899 19.166,6.295 L 20.889,3.839 19.133,2.084 16.709,3.827 C 16.105,3.461 15.442,3.181 14.738,3.007 L 14.222,0.066 H 11.738 L 11.26,2.998 C 10.554,3.171 9.889,3.446 9.283,3.81 L 6.866,2.084 5.11,3.839 6.81,6.27 C 6.442,6.879 6.163,7.543 5.985,8.253 L 3.066,8.738 v 2.484 l 2.916,0.516 c 0.176,0.71 0.456,1.375 0.824,1.985 l -1.723,2.409 1.756,1.757 2.434,-1.704 C 9.881,16.55 10.544,16.827 11.25,17 l 0.488,2.934 h 2.484 l 0.521,-2.941 c 0.701,-0.178 1.363,-0.457 1.967,-0.824 l 2.451,1.721 1.755,-1.757 -1.749,-2.429 c 0.362,-0.604 0.637,-1.263 0.811,-1.964 l 2.956,-0.517 z M 13,13.464 c -1.913,0 -3.464,-1.55 -3.464,-3.464 0,-1.912 1.551,-3.463 3.464,-3.463 1.913,0 3.463,1.551 3.463,3.463 10e-4,1.914 -1.55,3.464 -3.463,3.464 z"
       id="path5"
       inkscape:connector-curvature="0"
       style="fill:#333333;fill-opacity:1" /></g><rect
     width="56"
     height="56"
     id="rect7"
     x="4"
     y="4"
     style="fill:none" /><path
     d="m 55.692308,44.923077 v 8.615385 c 0,1.186769 -0.964923,2.153846 -2.153846,2.153846 H 10.461539 c -1.1889236,0 -2.1538467,-0.967077 -2.1538467,-2.153846 V 44.923077 H 4 v 8.615385 C 4,57.105231 6.8947692,60 10.461539,60 H 53.538462 C 57.105231,60 60,57.105231 60,53.538462 v -8.615385 h -4.307692 z"
     id="path9"
     inkscape:connector-curvature="0"
     style="fill:#333333;fill-opacity:1" /></svg>